<svg width="137" height="32" viewBox="0 0 137 32" fill="none" xmlns="http://www.w3.org/2000/svg">
<path opacity="0.2" d="M26.6363 21.56C25.6667 23.4146 24.229 24.9834 22.4658 26.1107C20.7026 27.238 18.6753 27.8846 16.585 27.9863L16.9813 25.9313C17.0107 25.777 17.0035 25.618 16.96 25.467C16.9166 25.3161 16.8382 25.1775 16.7313 25.0625L14.2638 22.5213C14.1308 22.3777 14.0428 22.1982 14.0108 22.0051C13.9788 21.8121 14.0042 21.6138 14.0838 21.435L15.7963 17.5925C15.8843 17.3951 16.034 17.2314 16.2228 17.1262C16.4117 17.021 16.6295 16.9798 16.8438 17.0088L19.6963 17.3938C19.8344 17.4127 19.9672 17.4599 20.0863 17.5325L26.6363 21.56ZM14.5888 11.875L16.125 11.03C16.1928 10.9933 16.2558 10.9484 16.3125 10.8963L19.6763 7.85501C19.8437 7.70274 19.9545 7.49817 19.9906 7.27475C20.0267 7.05133 19.986 6.82227 19.875 6.62501L18.5625 4.27376C17.7206 4.09138 16.8615 3.99961 16 4.00001C13.2609 3.99584 10.6034 4.93269 8.47251 6.65376L7.00001 10.135C6.90055 10.3707 6.89519 10.6355 6.98502 10.875L8.42251 14.7088C8.48158 14.8654 8.57902 15.0047 8.70591 15.1139C8.8328 15.2231 8.98507 15.2987 9.14877 15.3338L9.48501 15.4063L11.15 12.5C11.2379 12.3478 11.3644 12.2214 11.5167 12.1336C11.669 12.0458 11.8417 11.9998 12.0175 12H14.1063C14.2751 12.0003 14.4413 11.9573 14.5888 11.875Z" fill="#EF5F4C"/>
<path d="M16 3C13.4288 3 10.9154 3.76244 8.77759 5.1909C6.63975 6.61935 4.97351 8.64968 3.98957 11.0251C3.00563 13.4006 2.74819 16.0144 3.2498 18.5362C3.75141 21.0579 4.98953 23.3743 6.80762 25.1924C8.6257 27.0105 10.9421 28.2486 13.4638 28.7502C15.9856 29.2518 18.5995 28.9944 20.9749 28.0104C23.3503 27.0265 25.3807 25.3603 26.8091 23.2224C28.2376 21.0846 29 18.5712 29 16C28.9964 12.5533 27.6256 9.24882 25.1884 6.81163C22.7512 4.37445 19.4467 3.00364 16 3ZM27 16C27.0011 17.4112 26.7295 18.8094 26.2 20.1175L20.6125 16.6812C20.3749 16.5347 20.1092 16.4397 19.8325 16.4025L16.98 16.0175C16.5869 15.9662 16.1875 16.0321 15.8317 16.2069C15.476 16.3817 15.1797 16.6576 14.98 17H13.89L13.415 16.0175C13.2837 15.7439 13.0915 15.504 12.8532 15.3162C12.6148 15.1283 12.3367 14.9975 12.04 14.9338L11.04 14.7175L12.0175 13H14.1063C14.4442 12.9993 14.7766 12.9133 15.0725 12.75L16.6038 11.905C16.7383 11.83 16.8641 11.7403 16.9788 11.6375L20.3425 8.595C20.6798 8.29277 20.9039 7.8846 20.978 7.43784C21.0521 6.99108 20.9717 6.53241 20.75 6.1375L20.705 6.05625C22.5873 6.94875 24.1778 8.35674 25.292 10.1168C26.4063 11.8769 26.9985 13.9169 27 16ZM17.9138 5.1675L19 7.1125L15.6363 10.155L14.1063 11H12.0175C11.6659 10.9995 11.3204 11.0916 11.0158 11.2672C10.7112 11.4428 10.4583 11.6955 10.2825 12L9.19126 13.9038L7.92251 10.5238L9.29001 7.29C10.5004 6.35474 11.8929 5.68262 13.3781 5.31669C14.8633 4.95076 16.4086 4.8991 17.915 5.165L17.9138 5.1675ZM5.00001 16C4.99834 14.365 5.36311 12.7505 6.06751 11.275L7.48501 15.0588C7.60313 15.372 7.79802 15.6506 8.0518 15.869C8.30558 16.0874 8.61012 16.2386 8.93751 16.3088L11.6163 16.885L12.0925 17.875C12.2578 18.2117 12.5139 18.4955 12.832 18.6943C13.1501 18.8931 13.5174 18.999 13.8925 19H14.0775L13.1738 21.0287C13.0145 21.386 12.9635 21.782 13.0271 22.168C13.0906 22.5539 13.2659 22.9127 13.5313 23.2L13.5488 23.2175L16 25.7425L15.7575 26.9925C12.8848 26.9256 10.152 25.7387 8.14216 23.685C6.13236 21.6313 5.00477 18.8735 5.00001 16ZM17.8225 26.8475L17.9638 26.1213C18.0218 25.8127 18.0068 25.4949 17.92 25.1931C17.8332 24.8914 17.6769 24.6142 17.4638 24.3838C17.4576 24.3782 17.4518 24.3724 17.4463 24.3662L15 21.8425L16.7125 18L19.565 18.385L25.28 21.9C24.452 23.2003 23.3605 24.3125 22.076 25.1647C20.7914 26.0169 19.3424 26.5902 17.8225 26.8475Z" fill="#EF5F4C"/>
<path d="M51.34 8.96V11.7H47.62V23H44.2V11.7H40.48V8.96H51.34ZM56.4764 13.7C56.8764 13.0867 57.3764 12.6067 57.9764 12.26C58.5764 11.9 59.2431 11.72 59.9764 11.72V15.34H59.0364C58.1831 15.34 57.5431 15.5267 57.1164 15.9C56.6897 16.26 56.4764 16.9 56.4764 17.82V23H53.0564V11.84H56.4764V13.7ZM63.3311 10.68C62.7311 10.68 62.2378 10.5067 61.8511 10.16C61.4778 9.8 61.2911 9.36 61.2911 8.84C61.2911 8.30667 61.4778 7.86667 61.8511 7.52C62.2378 7.16 62.7311 6.98 63.3311 6.98C63.9178 6.98 64.3978 7.16 64.7711 7.52C65.1578 7.86667 65.3511 8.30667 65.3511 8.84C65.3511 9.36 65.1578 9.8 64.7711 10.16C64.3978 10.5067 63.9178 10.68 63.3311 10.68ZM65.0311 11.84V23H61.6111V11.84H65.0311ZM70.9295 13.42C71.2629 12.9 71.7229 12.48 72.3095 12.16C72.8962 11.84 73.5829 11.68 74.3695 11.68C75.2895 11.68 76.1229 11.9133 76.8695 12.38C77.6162 12.8467 78.2029 13.5133 78.6295 14.38C79.0695 15.2467 79.2895 16.2533 79.2895 17.4C79.2895 18.5467 79.0695 19.56 78.6295 20.44C78.2029 21.3067 77.6162 21.98 76.8695 22.46C76.1229 22.9267 75.2895 23.16 74.3695 23.16C73.5962 23.16 72.9095 23 72.3095 22.68C71.7229 22.36 71.2629 21.9467 70.9295 21.44V28.32H67.5095V11.84H70.9295V13.42ZM75.8095 17.4C75.8095 16.5467 75.5695 15.88 75.0895 15.4C74.6229 14.9067 74.0429 14.66 73.3495 14.66C72.6695 14.66 72.0895 14.9067 71.6095 15.4C71.1429 15.8933 70.9095 16.5667 70.9095 17.42C70.9095 18.2733 71.1429 18.9467 71.6095 19.44C72.0895 19.9333 72.6695 20.18 73.3495 20.18C74.0295 20.18 74.6095 19.9333 75.0895 19.44C75.5695 18.9333 75.8095 18.2533 75.8095 17.4ZM85.3238 11.68C86.1104 11.68 86.7971 11.84 87.3838 12.16C87.9838 12.48 88.4438 12.9 88.7638 13.42V11.84H92.1838V22.98C92.1838 24.0067 91.9771 24.9333 91.5638 25.76C91.1638 26.6 90.5438 27.2667 89.7038 27.76C88.8771 28.2533 87.8438 28.5 86.6038 28.5C84.9504 28.5 83.6104 28.1067 82.5838 27.32C81.5571 26.5467 80.9704 25.4933 80.8238 24.16H84.2038C84.3104 24.5867 84.5638 24.92 84.9638 25.16C85.3638 25.4133 85.8571 25.54 86.4438 25.54C87.1504 25.54 87.7104 25.3333 88.1238 24.92C88.5504 24.52 88.7638 23.8733 88.7638 22.98V21.4C88.4304 21.92 87.9704 22.3467 87.3838 22.68C86.7971 23 86.1104 23.16 85.3238 23.16C84.4038 23.16 83.5704 22.9267 82.8238 22.46C82.0771 21.98 81.4838 21.3067 81.0438 20.44C80.6171 19.56 80.4038 18.5467 80.4038 17.4C80.4038 16.2533 80.6171 15.2467 81.0438 14.38C81.4838 13.5133 82.0771 12.8467 82.8238 12.38C83.5704 11.9133 84.4038 11.68 85.3238 11.68ZM88.7638 17.42C88.7638 16.5667 88.5238 15.8933 88.0438 15.4C87.5771 14.9067 87.0038 14.66 86.3238 14.66C85.6438 14.66 85.0638 14.9067 84.5838 15.4C84.1171 15.88 83.8838 16.5467 83.8838 17.4C83.8838 18.2533 84.1171 18.9333 84.5838 19.44C85.0638 19.9333 85.6438 20.18 86.3238 20.18C87.0038 20.18 87.5771 19.9333 88.0438 19.44C88.5238 18.9467 88.7638 18.2733 88.7638 17.42ZM98.078 13.7C98.478 13.0867 98.978 12.6067 99.578 12.26C100.178 11.9 100.845 11.72 101.578 11.72V15.34H100.638C99.7846 15.34 99.1446 15.5267 98.718 15.9C98.2913 16.26 98.078 16.9 98.078 17.82V23H94.658V11.84H98.078V13.7ZM102.533 17.4C102.533 16.2533 102.746 15.2467 103.173 14.38C103.613 13.5133 104.206 12.8467 104.953 12.38C105.699 11.9133 106.533 11.68 107.453 11.68C108.239 11.68 108.926 11.84 109.513 12.16C110.113 12.48 110.573 12.9 110.893 13.42V11.84H114.313V23H110.893V21.42C110.559 21.94 110.093 22.36 109.493 22.68C108.906 23 108.219 23.16 107.433 23.16C106.526 23.16 105.699 22.9267 104.953 22.46C104.206 21.98 103.613 21.3067 103.173 20.44C102.746 19.56 102.533 18.5467 102.533 17.4ZM110.893 17.42C110.893 16.5667 110.653 15.8933 110.173 15.4C109.706 14.9067 109.133 14.66 108.453 14.66C107.773 14.66 107.193 14.9067 106.713 15.4C106.246 15.88 106.013 16.5467 106.013 17.4C106.013 18.2533 106.246 18.9333 106.713 19.44C107.193 19.9333 107.773 20.18 108.453 20.18C109.133 20.18 109.706 19.9333 110.173 19.44C110.653 18.9467 110.893 18.2733 110.893 17.42ZM131.027 11.72C132.414 11.72 133.514 12.14 134.327 12.98C135.154 13.82 135.567 14.9867 135.567 16.48V23H132.167V16.94C132.167 16.22 131.974 15.6667 131.587 15.28C131.214 14.88 130.694 14.68 130.027 14.68C129.36 14.68 128.834 14.88 128.447 15.28C128.074 15.6667 127.887 16.22 127.887 16.94V23H124.487V16.94C124.487 16.22 124.294 15.6667 123.907 15.28C123.534 14.88 123.014 14.68 122.347 14.68C121.68 14.68 121.154 14.88 120.767 15.28C120.394 15.6667 120.207 16.22 120.207 16.94V23H116.787V11.84H120.207V13.24C120.554 12.7733 121.007 12.4067 121.567 12.14C122.127 11.86 122.76 11.72 123.467 11.72C124.307 11.72 125.054 11.9 125.707 12.26C126.374 12.62 126.894 13.1333 127.267 13.8C127.654 13.1867 128.18 12.6867 128.847 12.3C129.514 11.9133 130.24 11.72 131.027 11.72Z" fill="#EF5F4C"/>
</svg>
